<svg width="512" height="512" viewBox="0 0 512 512" fill="none" xmlns="http://www.w3.org/2000/svg">
<rect width="512" height="512" rx="36" fill="white"/>
<path d="M96 66H267.611C360.118 66 406.372 97.3137 406.372 159.941C406.372 183.709 403.729 202.007 398.443 214.834C393.534 227.662 383.15 239.734 367.292 251.053C385.794 258.975 398.442 268.784 405.239 280.48C412.413 291.798 416 310.85 416 337.637C416 409.319 367.292 445.16 269.876 445.16H96V66ZM257.982 295.194H227.398V357.444H257.982C271.198 357.444 280.071 355.369 284.602 351.219C289.133 346.691 291.398 338.58 291.398 326.884C291.398 314.812 288.944 306.512 284.035 301.984C279.127 297.457 270.442 295.194 257.982 295.194ZM256.283 152.584H227.398V213.137H256.85C268.177 213.137 276.106 210.684 280.637 205.78C285.168 200.875 287.434 193.141 287.434 182.577C287.434 171.637 284.979 163.902 280.071 159.375C275.162 154.848 267.233 152.584 256.283 152.584Z" fill="#C00005"/>
</svg>
