<svg width="80" height="80" viewBox="0 0 80 80" fill="none" xmlns="http://www.w3.org/2000/svg">
<path d="M46.6666 6.66666H20C18.2319 6.66666 16.5362 7.36904 15.2859 8.61928C14.0357 9.86952 13.3333 11.5652 13.3333 13.3333V66.6667C13.3333 68.4348 14.0357 70.1305 15.2859 71.3807C16.5362 72.6309 18.2319 73.3333 20 73.3333H60C61.7681 73.3333 63.4638 72.6309 64.714 71.3807C65.9643 70.1305 66.6666 68.4348 66.6666 66.6667V26.6667L46.6666 6.66666Z" stroke="#C00005" stroke-width="4" stroke-linecap="round" stroke-linejoin="round"/>
<path d="M46.6667 6.66666V26.6667H66.6667" stroke="#C00005" stroke-width="4" stroke-linecap="round" stroke-linejoin="round"/>
<path d="M53.3334 43.3333H26.6667" stroke="#C00005" stroke-width="2" stroke-linecap="round" stroke-linejoin="round"/>
<path d="M53.3334 56.6667H26.6667" stroke="#C00005" stroke-width="2" stroke-linecap="round" stroke-linejoin="round"/>
<path d="M33.3334 30H30H26.6667" stroke="#C00005" stroke-width="2" stroke-linecap="round" stroke-linejoin="round"/>
</svg>
